<svg width="148" height="55" viewBox="0 0 148 55" fill="none" xmlns="http://www.w3.org/2000/svg">
<path d="M9.68697 7.67836H14.8544V13.4371C14.1202 13.4371 13.3954 13.3148 12.6801 13.0701C11.9836 12.8067 11.3435 12.4491 10.76 11.9974C10.1764 11.5458 9.68697 11 9.29165 10.3601C8.91515 9.72027 8.69867 9.01454 8.64219 8.24294C8.35982 8.33704 8.08686 8.61933 7.82331 9.08982C7.55977 9.56031 7.37152 10.1343 7.25857 10.8118C7.14562 11.4705 7.1268 12.1762 7.2021 12.929C7.29622 13.6818 7.55977 14.3875 7.99274 15.0462C8.42571 15.6861 9.05634 16.2224 9.88463 16.6553C10.7129 17.0881 11.8048 17.3234 13.1601 17.361H14.8544V23.5714H11.1553C9.23517 23.5714 7.60683 23.1856 6.27027 22.414C4.93371 21.6236 3.89835 20.6356 3.16418 19.45C2.44884 18.2643 2.0441 16.994 1.94998 15.639C1.85586 14.2652 2.07234 12.9855 2.59944 11.7998C3.12653 10.6142 3.97364 9.63559 5.14078 8.86399C6.32674 8.07357 7.84214 7.67836 9.68697 7.67836Z" fill="#1E1E1E"/>
<path d="M25.3218 13.4654V8.27117C25.2276 8.55346 25.0582 8.9769 24.8135 9.54149C24.5688 10.1061 24.1734 10.6801 23.6275 11.2635C23.0816 11.8281 22.3474 12.3268 21.425 12.7596C20.5214 13.1925 19.3543 13.4277 17.9236 13.4654V7.67836H26.7619C27.4395 7.67836 28.0796 7.81009 28.682 8.07357C29.2844 8.33704 29.8021 8.69461 30.235 9.14628C30.6868 9.57913 31.0445 10.0967 31.308 10.6989C31.5716 11.3011 31.7034 11.941 31.7034 12.6185V23.5714H30.2915C29.6138 23.5714 28.9738 23.4397 28.3714 23.1762C27.769 22.9127 27.2419 22.5646 26.7901 22.1317C26.3571 21.6801 26.0089 21.1531 25.7453 20.5509C25.4818 19.9487 25.35 19.3088 25.35 18.6313V23.5714H20.8038C20.1826 23.5714 19.599 23.4867 19.0531 23.3174C18.526 23.148 18.0554 22.9033 17.6412 22.5834C17.2459 22.2447 16.9259 21.84 16.6812 21.3695C16.4553 20.8991 16.3423 20.3627 16.3423 19.7605C16.3423 19.0077 16.5118 18.349 16.8506 17.7844C17.2083 17.2198 17.6601 16.7305 18.206 16.3165C18.7519 15.8837 19.3637 15.5167 20.0414 15.2156C20.7191 14.9145 21.3874 14.6604 22.0462 14.4534C22.7239 14.2275 23.3452 14.0393 23.9099 13.8888C24.4935 13.7382 24.9641 13.5971 25.3218 13.4654ZM25.35 17.361V14.2558C24.8982 14.3687 24.4558 14.5192 24.0228 14.7074C23.6087 14.8956 23.2322 15.1121 22.8934 15.3567C22.5733 15.5825 22.3098 15.846 22.1027 16.1471C21.8956 16.4482 21.7921 16.7682 21.7921 17.1069C21.7733 17.4833 21.9051 17.7562 22.1874 17.9256C22.4886 18.095 22.8275 18.1796 23.204 18.1796C23.5993 18.1796 23.9946 18.1044 24.3899 17.9538C24.8041 17.8032 25.1241 17.6056 25.35 17.361Z" fill="#1E1E1E"/>
<path d="M33.4168 7.67836H34.1509C34.1886 6.88794 34.358 6.13516 34.6592 5.42002C34.9604 4.70488 35.3746 4.08383 35.9017 3.55689C36.4476 3.01112 37.1064 2.57827 37.8783 2.25834C38.6501 1.91959 39.5254 1.73139 40.5043 1.69376H45.6717V7.48075C44.9375 7.48075 44.241 7.35843 43.5822 7.11377C42.9233 6.86912 42.3397 6.52096 41.8315 6.06929C41.342 5.61762 40.9467 5.07186 40.6455 4.43199C40.3443 3.79213 40.1749 3.07699 40.1372 2.28657C39.9678 2.7006 39.8643 3.15227 39.8266 3.64157C39.789 4.13088 39.789 4.6296 39.8266 5.13772C39.8831 5.62703 39.9584 6.09752 40.0525 6.54919C40.1655 6.98204 40.2784 7.35842 40.3914 7.67836H43.1868V8.66638H40.5043V23.5714H34.1227V8.66638H33.4168V7.67836Z" fill="#1E1E1E"/>
<path d="M51.082 7.67836H56.1647C56.3529 7.67836 56.5318 7.67836 56.7012 7.67836C56.8706 7.67836 57.0306 7.69718 57.1812 7.73481V10.84C57.1248 11.574 56.9177 12.2515 56.56 12.8725C56.2023 13.4936 55.7411 14.0299 55.1764 14.4816C54.6305 14.9333 54.0093 15.2908 53.3127 15.5543C52.635 15.8178 51.9385 15.9683 51.2232 16.006C51.6938 16.4012 52.2774 16.7211 52.9739 16.9658C53.6704 17.1916 54.5081 17.3234 55.487 17.361H57.1812V23.5714H53.4822C51.4867 23.5714 49.8302 23.1856 48.5124 22.414C47.1947 21.6236 46.1876 20.6356 45.491 19.45C44.7945 18.2643 44.3992 16.994 44.3051 15.639C44.2298 14.2652 44.4369 12.9855 44.9263 11.7998C45.4157 10.6142 46.1782 9.63559 47.2135 8.86399C48.2489 8.07357 49.5384 7.67836 51.082 7.67836ZM51.3361 0L55.6564 3.27459L45.8299 6.29512L51.3361 0ZM50.9691 15.8084V8.21471C50.6679 8.30881 50.3667 8.64756 50.0655 9.23097C49.7831 9.79555 49.5948 10.4636 49.5007 11.2352C49.4254 11.988 49.4819 12.7879 49.6701 13.6347C49.8772 14.4628 50.3102 15.1873 50.9691 15.8084Z" fill="#1E1E1E"/>
<path d="M69.0302 7.67836H74.1962V13.4371C73.4622 13.4371 72.7377 13.3148 72.0225 13.0701C71.3262 12.8067 70.6863 12.4491 70.1029 11.9974C69.5195 11.5458 69.0302 11 68.635 10.3601C68.2586 9.72027 68.0422 9.01454 67.9857 8.24294C67.7034 8.33704 67.4305 8.61933 67.167 9.08982C66.9036 9.56031 66.7154 10.1343 66.6025 10.8118C66.4895 11.4705 66.4707 12.1762 66.546 12.929C66.6401 13.6818 66.9036 14.3875 67.3364 15.0462C67.7693 15.6861 68.3997 16.2224 69.2278 16.6553C70.0559 17.0881 71.1474 17.3234 72.5024 17.361H74.1962V23.5714H70.4981C68.5785 23.5714 66.9506 23.1856 65.6144 22.414C64.2782 21.6236 63.2431 20.6356 62.5092 19.45C61.794 18.2643 61.3894 16.994 61.2953 15.639C61.2012 14.2652 61.4176 12.9855 61.9446 11.7998C62.4715 10.6142 63.3184 9.63559 64.4852 8.86399C65.6709 8.07357 67.1859 7.67836 69.0302 7.67836Z" fill="#1E1E1E"/>
<path d="M76.2483 12.929C76.2483 12.195 76.3801 11.5081 76.6436 10.8683C76.9259 10.2284 77.3022 9.67322 77.7727 9.20274C78.262 8.73225 78.8172 8.36527 79.4383 8.1018C80.0781 7.8195 80.7462 7.67836 81.4426 7.67836H89.3186V13.4371C88.5846 13.4371 87.8977 13.3148 87.2578 13.0701C86.618 12.8255 86.044 12.4773 85.5358 12.0257C85.0465 11.574 84.6513 11.0282 84.3502 10.3884C84.0679 9.7485 83.9173 9.04277 83.8985 8.27117C83.6727 8.38409 83.4751 8.60992 83.3057 8.94867C83.1552 9.28743 83.0234 9.67323 82.9105 10.1061C82.7976 10.5201 82.7129 10.9624 82.6564 11.4328C82.6188 11.9033 82.6 12.3268 82.6 12.7032V23.5714H76.2483V12.929Z" fill="#1E1E1E"/>
<path d="M96.9333 7.67836H102.015C102.203 7.67836 102.382 7.67836 102.551 7.67836C102.72 7.67836 102.88 7.69718 103.031 7.73481V10.84C102.974 11.574 102.767 12.2515 102.41 12.8725C102.052 13.4936 101.591 14.0299 101.027 14.4816C100.481 14.9333 99.8597 15.2908 99.1634 15.5543C98.4859 15.8178 97.7896 15.9683 97.0744 16.006C97.5449 16.4012 98.1283 16.7211 98.8246 16.9658C99.521 17.1916 100.358 17.3234 101.337 17.361H103.031V23.5714H99.3328C97.3567 23.5714 95.7006 23.1856 94.3644 22.414C93.047 21.6236 92.0402 20.6356 91.3438 19.45C90.6475 18.2643 90.2523 16.994 90.1582 15.639C90.0829 14.2652 90.2899 12.9855 90.7793 11.7998C91.2686 10.6142 92.0308 9.63559 93.0658 8.86399C94.1009 8.07357 95.3901 7.67836 96.9333 7.67836ZM91.6826 3.27459L96.0017 0L101.506 6.29512L91.6826 3.27459ZM96.8486 15.8084V8.21471C96.5287 8.30881 96.2181 8.64756 95.917 9.23097C95.6347 9.79555 95.4465 10.4636 95.3524 11.2352C95.2772 11.988 95.343 12.7879 95.55 13.6347C95.757 14.4628 96.1899 15.1873 96.8486 15.8084Z" fill="#1E1E1E"/>
<path d="M105.171 7.67836H111.523V13.5783C111.786 12.8631 112.106 12.1574 112.482 11.4611C112.859 10.7648 113.32 10.1343 113.866 9.56972C114.411 9.00513 115.042 8.55346 115.757 8.21471C116.472 7.85714 117.291 7.67836 118.213 7.67836C118.815 7.67836 119.323 7.79127 119.737 8.01711C120.151 8.24294 120.49 8.55346 120.754 8.94867C121.017 9.32506 121.205 9.76732 121.318 10.2754C121.45 10.7648 121.516 11.2823 121.516 11.8281V13.5783C121.779 12.8631 122.099 12.1574 122.476 11.4611C122.852 10.7648 123.304 10.1343 123.831 9.56972C124.376 9.00513 125.007 8.55346 125.722 8.21471C126.437 7.85714 127.256 7.67836 128.178 7.67836C128.78 7.67836 129.288 7.79127 129.702 8.01711C130.116 8.24294 130.455 8.55346 130.719 8.94867C130.982 9.32506 131.17 9.76732 131.283 10.2754C131.415 10.7648 131.481 11.2823 131.481 11.8281V23.5714H125.129V15.272C125.129 14.7074 125.007 14.284 124.762 14.0017C124.536 13.7194 124.254 13.5783 123.915 13.5783C123.671 13.5783 123.417 13.6536 123.153 13.8041C122.89 13.9547 122.645 14.1805 122.419 14.4816C122.193 14.7639 121.996 15.1215 121.826 15.5543C121.676 15.9872 121.572 16.4859 121.516 17.0505V23.5714H115.164V15.272C115.164 14.7074 115.042 14.284 114.797 14.0017C114.571 13.7194 114.289 13.5783 113.95 13.5783C113.461 13.5783 112.953 13.87 112.426 14.4534C111.918 15.0368 111.617 15.9025 111.523 17.0505V23.5714H105.171V7.67836Z" fill="#1E1E1E"/>
<path d="M139.884 7.67836H144.965C145.154 7.67836 145.332 7.67836 145.502 7.67836C145.671 7.67836 145.84 7.69718 146.01 7.73481V10.84C145.953 11.574 145.737 12.2515 145.361 12.8725C145.003 13.4936 144.542 14.0299 143.977 14.4816C143.432 14.9333 142.81 15.2908 142.114 15.5543C141.437 15.8178 140.74 15.9683 140.025 16.006C140.496 16.4012 141.079 16.7211 141.775 16.9658C142.472 17.1916 143.309 17.3234 144.288 17.361H146.01V23.5714H142.284C140.307 23.5714 138.651 23.1856 137.315 22.414C135.998 21.6236 134.991 20.6356 134.295 19.45C133.598 18.2643 133.203 16.994 133.109 15.639C133.034 14.2652 133.241 12.9855 133.73 11.7998C134.219 10.6142 134.981 9.63559 136.017 8.86399C137.052 8.07357 138.341 7.67836 139.884 7.67836ZM139.771 15.8084V8.21471C139.47 8.30881 139.169 8.64756 138.868 9.23097C138.585 9.79555 138.397 10.4636 138.303 11.2352C138.228 11.988 138.284 12.7879 138.473 13.6347C138.68 14.4628 139.112 15.1873 139.771 15.8084Z" fill="#1E1E1E"/>
<path d="M7.77 47.168C3.276 47.168 0.525 43.997 0.525 39.944C0.525 35.891 3.276 32.72 7.77 32.72C10.773 32.72 12.957 34.169 14.133 36.353L10.983 39.062C10.605 37.697 9.513 36.374 7.728 36.374C5.775 36.374 4.62 37.823 4.62 39.944C4.62 42.065 5.775 43.514 7.728 43.514C9.513 43.514 10.605 42.191 10.983 40.826L14.133 43.535C12.957 45.719 10.773 47.168 7.77 47.168ZM24.0532 47.168C19.7692 47.168 16.8082 43.997 16.8082 39.944C16.8082 35.891 19.7692 32.72 24.0532 32.72C28.3372 32.72 31.2982 35.891 31.2982 39.944C31.2982 43.997 28.3372 47.168 24.0532 47.168ZM24.0532 43.493C26.2372 43.493 27.3082 41.981 27.3082 39.944C27.3082 37.907 26.2372 36.395 24.0532 36.395C21.8692 36.395 20.7982 37.907 20.7982 39.944C20.7982 41.981 21.8692 43.493 24.0532 43.493ZM39.0321 47H35.2521V32.93H40.5021L41.8881 37.025L43.1271 41.897L44.3661 37.025L45.7521 32.93H51.0021V47H47.2221V43.346L47.8311 36.437L46.0671 41.897L45.1641 44.48H41.0901L40.1871 41.897L38.4231 36.437L39.0321 43.346V47ZM59.4989 47H55.7189V32.93H60.9689L62.3549 37.025L63.5939 41.897L64.8329 37.025L66.2189 32.93H71.4689V47H67.6889V43.346L68.2979 36.437L66.5339 41.897L65.6309 44.48H61.5569L60.6539 41.897L58.8899 36.437L59.4989 43.346V47ZM82.3807 47.21C78.2857 47.21 76.0807 45.215 76.0807 40.637V32.93H79.8607V40.679C79.8607 42.674 80.7427 43.535 82.4017 43.535C84.1027 43.535 84.9427 42.674 84.9427 40.679V32.93H88.7227V40.637C88.7227 45.215 86.5807 47.21 82.3807 47.21ZM97.1102 47H93.3302V32.93H97.1102L101.247 39.272L102.423 41.477L102.15 37.34V32.93H105.93V47H102.276L97.9922 40.679L96.7742 38.516L97.1102 43.073V47ZM114.419 47H110.639V32.93H114.419V47ZM125.594 47H121.814V36.29H117.761V32.93H129.647V36.29H125.594V47ZM141.455 47H137.675V42.464L132.257 32.93H137.045L138.41 36.038L139.649 39.272L140.888 36.038L142.274 32.93H146.936L141.455 42.506V47Z" fill="#3971FA"/>
</svg>
