<svg width="148" height="55" viewBox="0 0 148 55" fill="none" xmlns="http://www.w3.org/2000/svg">
<path d="M9.68709 7.67836H14.8545V13.4371C14.1203 13.4371 13.3956 13.3148 12.6802 13.0701C11.9837 12.8067 11.3437 12.4491 10.7601 11.9974C10.1765 11.5458 9.68709 11 9.29177 10.3601C8.91527 9.72027 8.69879 9.01454 8.64231 8.24294C8.35994 8.33704 8.08698 8.61933 7.82344 9.08982C7.55989 9.56031 7.37164 10.1343 7.25869 10.8118C7.14574 11.4705 7.12692 12.1762 7.20222 12.929C7.29634 13.6818 7.55989 14.3875 7.99286 15.0462C8.42583 15.6861 9.05646 16.2224 9.88475 16.6553C10.713 17.0881 11.8049 17.3234 13.1603 17.361H14.8545V23.5714H11.1554C9.23529 23.5714 7.60695 23.1856 6.27039 22.414C4.93383 21.6236 3.89847 20.6356 3.1643 19.45C2.44896 18.2643 2.04423 16.994 1.9501 15.639C1.85598 14.2652 2.07246 12.9855 2.59956 11.7998C3.12665 10.6142 3.97377 9.63559 5.1409 8.86399C6.32686 8.07357 7.84226 7.67836 9.68709 7.67836Z" fill="white"/>
<path d="M25.3219 13.4654V8.27117C25.2278 8.55346 25.0583 8.9769 24.8136 9.54149C24.5689 10.1061 24.1736 10.6801 23.6276 11.2635C23.0817 11.8281 22.3476 12.3268 21.4251 12.7596C20.5216 13.1925 19.3544 13.4277 17.9237 13.4654V7.67836H26.762C27.4397 7.67836 28.0797 7.81009 28.6821 8.07357C29.2845 8.33704 29.8022 8.69461 30.2351 9.14628C30.6869 9.57913 31.0446 10.0967 31.3082 10.6989C31.5717 11.3011 31.7035 11.941 31.7035 12.6185V23.5714H30.2916C29.6139 23.5714 28.9739 23.4397 28.3715 23.1762C27.7691 22.9127 27.242 22.5646 26.7902 22.1317C26.3572 21.6801 26.009 21.1531 25.7454 20.5509C25.4819 19.9487 25.3501 19.3088 25.3501 18.6313V23.5714H20.8039C20.1827 23.5714 19.5991 23.4867 19.0532 23.3174C18.5261 23.148 18.0555 22.9033 17.6414 22.5834C17.246 22.2447 16.926 21.84 16.6813 21.3695C16.4554 20.8991 16.3425 20.3627 16.3425 19.7605C16.3425 19.0077 16.5119 18.349 16.8507 17.7844C17.2084 17.2198 17.6602 16.7305 18.2061 16.3165C18.752 15.8837 19.3638 15.5167 20.0415 15.2156C20.7192 14.9145 21.3875 14.6604 22.0464 14.4534C22.7241 14.2275 23.3453 14.0393 23.91 13.8888C24.4936 13.7382 24.9642 13.5971 25.3219 13.4654ZM25.3501 17.361V14.2558C24.8983 14.3687 24.4559 14.5192 24.023 14.7074C23.6088 14.8956 23.2323 15.1121 22.8935 15.3567C22.5735 15.5825 22.3099 15.846 22.1028 16.1471C21.8958 16.4482 21.7922 16.7682 21.7922 17.1069C21.7734 17.4833 21.9052 17.7562 22.1876 17.9256C22.4887 18.095 22.8276 18.1796 23.2041 18.1796C23.5994 18.1796 23.9947 18.1044 24.3901 17.9538C24.8042 17.8032 25.1242 17.6056 25.3501 17.361Z" fill="white"/>
<path d="M33.4169 7.67836H34.1511C34.1887 6.88794 34.3581 6.13516 34.6593 5.42002C34.9605 4.70488 35.3747 4.08383 35.9018 3.55689C36.4477 3.01112 37.1066 2.57827 37.8784 2.25834C38.6502 1.91959 39.5255 1.73139 40.5044 1.69376H45.6718V7.48075C44.9377 7.48075 44.2412 7.35843 43.5823 7.11377C42.9234 6.86912 42.3399 6.52096 41.8316 6.06929C41.3421 5.61762 40.9468 5.07186 40.6456 4.43199C40.3444 3.79213 40.175 3.07699 40.1374 2.28657C39.9679 2.7006 39.8644 3.15227 39.8267 3.64157C39.7891 4.13088 39.7891 4.6296 39.8267 5.13772C39.8832 5.62703 39.9585 6.09752 40.0526 6.54919C40.1656 6.98204 40.2785 7.35842 40.3915 7.67836H43.187V8.66638H40.5044V23.5714H34.1228V8.66638H33.4169V7.67836Z" fill="white"/>
<path d="M51.0821 7.67836H56.1648C56.3531 7.67836 56.5319 7.67836 56.7013 7.67836C56.8707 7.67836 57.0308 7.69718 57.1814 7.73481V10.84C57.1249 11.574 56.9178 12.2515 56.5601 12.8725C56.2025 13.4936 55.7413 14.0299 55.1765 14.4816C54.6306 14.9333 54.0094 15.2908 53.3129 15.5543C52.6352 15.8178 51.9387 15.9683 51.2233 16.006C51.6939 16.4012 52.2775 16.7211 52.974 16.9658C53.6705 17.1916 54.5082 17.3234 55.4871 17.361H57.1814V23.5714H53.4823C51.4869 23.5714 49.8303 23.1856 48.5125 22.414C47.1948 21.6236 46.1877 20.6356 45.4912 19.45C44.7946 18.2643 44.3993 16.994 44.3052 15.639C44.2299 14.2652 44.437 12.9855 44.9264 11.7998C45.4159 10.6142 46.1783 9.63559 47.2136 8.86399C48.249 8.07357 49.5385 7.67836 51.0821 7.67836ZM51.3363 0L55.6565 3.27459L45.83 6.29512L51.3363 0ZM50.9692 15.8084V8.21471C50.668 8.30881 50.3668 8.64756 50.0656 9.23097C49.7832 9.79555 49.595 10.4636 49.5008 11.2352C49.4255 11.988 49.482 12.7879 49.6703 13.6347C49.8773 14.4628 50.3103 15.1873 50.9692 15.8084Z" fill="white"/>
<path d="M69.0304 7.67836H74.1964V13.4371C73.4625 13.4371 72.7379 13.3148 72.0228 13.0701C71.3264 12.8067 70.6866 12.4491 70.1032 11.9974C69.5197 11.5458 69.0304 11 68.6352 10.3601C68.2588 9.72027 68.0424 9.01454 67.9859 8.24294C67.7037 8.33704 67.4308 8.61933 67.1673 9.08982C66.9038 9.56031 66.7156 10.1343 66.6027 10.8118C66.4898 11.4705 66.471 12.1762 66.5462 12.929C66.6403 13.6818 66.9038 14.3875 67.3367 15.0462C67.7695 15.6861 68.4 16.2224 69.228 16.6553C70.0561 17.0881 71.1477 17.3234 72.5027 17.361H74.1964V23.5714H70.4984C68.5788 23.5714 66.9509 23.1856 65.6147 22.414C64.2785 21.6236 63.2434 20.6356 62.5094 19.45C61.7943 18.2643 61.3897 16.994 61.2956 15.639C61.2015 14.2652 61.4179 12.9855 61.9448 11.7998C62.4718 10.6142 63.3187 9.63559 64.4855 8.86399C65.6711 8.07357 67.1861 7.67836 69.0304 7.67836Z" fill="white"/>
<path d="M76.2486 12.929C76.2486 12.195 76.3803 11.5081 76.6438 10.8683C76.9261 10.2284 77.3025 9.67322 77.773 9.20274C78.2623 8.73225 78.8175 8.36527 79.4385 8.1018C80.0784 7.8195 80.7465 7.67836 81.4428 7.67836H89.3188V13.4371C88.5849 13.4371 87.898 13.3148 87.2581 13.0701C86.6182 12.8255 86.0442 12.4773 85.5361 12.0257C85.0468 11.574 84.6516 11.0282 84.3504 10.3884C84.0681 9.7485 83.9176 9.04277 83.8988 8.27117C83.6729 8.38409 83.4753 8.60992 83.306 8.94867C83.1554 9.28742 83.0237 9.67323 82.9107 10.1061C82.7978 10.5201 82.7131 10.9624 82.6567 11.4328C82.619 11.9033 82.6002 12.3268 82.6002 12.7032V23.5714H76.2486V12.929Z" fill="white"/>
<path d="M96.9335 7.67836H102.015C102.203 7.67836 102.382 7.67836 102.551 7.67836C102.721 7.67836 102.881 7.69718 103.031 7.73481V10.84C102.975 11.574 102.768 12.2515 102.41 12.8725C102.052 13.4936 101.591 14.0299 101.027 14.4816C100.481 14.9333 99.86 15.2908 99.1637 15.5543C98.4861 15.8178 97.7898 15.9683 97.0747 16.006C97.5452 16.4012 98.1286 16.7211 98.8249 16.9658C99.5212 17.1916 100.359 17.3234 101.337 17.361H103.031V23.5714H99.333C97.357 23.5714 95.7008 23.1856 94.3646 22.414C93.0473 21.6236 92.0404 20.6356 91.3441 19.45C90.6478 18.2643 90.2526 16.994 90.1585 15.639C90.0832 14.2652 90.2902 12.9855 90.7795 11.7998C91.2688 10.6142 92.031 9.63559 93.0661 8.86399C94.1012 8.07357 95.3903 7.67836 96.9335 7.67836ZM91.6828 3.27459L96.0019 0L101.507 6.29512L91.6828 3.27459ZM96.8488 15.8084V8.21471C96.5289 8.30881 96.2184 8.64756 95.9173 9.23097C95.635 9.79555 95.4468 10.4636 95.3527 11.2352C95.2774 11.988 95.3433 12.7879 95.5503 13.6347C95.7573 14.4628 96.1902 15.1873 96.8488 15.8084Z" fill="white"/>
<path d="M105.171 7.67836H111.523V13.5783C111.786 12.8631 112.106 12.1574 112.483 11.4611C112.859 10.7648 113.32 10.1343 113.866 9.56972C114.412 9.00513 115.042 8.55346 115.757 8.21471C116.472 7.85714 117.291 7.67836 118.213 7.67836C118.815 7.67836 119.324 7.79127 119.738 8.01711C120.152 8.24294 120.49 8.55346 120.754 8.94867C121.017 9.32506 121.206 9.76732 121.318 10.2754C121.45 10.7648 121.516 11.2823 121.516 11.8281V13.5783C121.78 12.8631 122.1 12.1574 122.476 11.4611C122.852 10.7648 123.304 10.1343 123.831 9.56972C124.377 9.00513 125.007 8.55346 125.722 8.21471C126.437 7.85714 127.256 7.67836 128.178 7.67836C128.781 7.67836 129.289 7.79127 129.703 8.01711C130.117 8.24294 130.455 8.55346 130.719 8.94867C130.982 9.32506 131.171 9.76732 131.284 10.2754C131.415 10.7648 131.481 11.2823 131.481 11.8281V23.5714H125.129V15.272C125.129 14.7074 125.007 14.284 124.763 14.0017C124.537 13.7194 124.254 13.5783 123.916 13.5783C123.671 13.5783 123.417 13.6535 123.153 13.8041C122.89 13.9547 122.645 14.1805 122.419 14.4816C122.194 14.7639 121.996 15.1215 121.827 15.5543C121.676 15.9872 121.573 16.4859 121.516 17.0505V23.5714H115.164V15.272C115.164 14.7074 115.042 14.284 114.797 14.0017C114.572 13.7194 114.289 13.5783 113.951 13.5783C113.461 13.5783 112.953 13.87 112.426 14.4534C111.918 15.0368 111.617 15.9025 111.523 17.0505V23.5714H105.171V7.67836Z" fill="white"/>
<path d="M139.884 7.67836H144.966C145.154 7.67836 145.333 7.67836 145.502 7.67836C145.671 7.67836 145.841 7.69718 146.01 7.73481V10.84C145.954 11.574 145.737 12.2515 145.361 12.8725C145.003 13.4936 144.542 14.0299 143.978 14.4816C143.432 14.9333 142.811 15.2908 142.114 15.5543C141.437 15.8178 140.741 15.9683 140.025 16.006C140.496 16.4012 141.079 16.7211 141.776 16.9658C142.472 17.1916 143.309 17.3234 144.288 17.361H146.01V23.5714H142.284C140.308 23.5714 138.652 23.1856 137.315 22.414C135.998 21.6236 134.991 20.6356 134.295 19.45C133.598 18.2643 133.203 16.994 133.109 15.639C133.034 14.2652 133.241 12.9855 133.73 11.7998C134.22 10.6142 134.982 9.63559 136.017 8.86399C137.052 8.07357 138.341 7.67836 139.884 7.67836ZM139.771 15.8084V8.21471C139.47 8.30881 139.169 8.64756 138.868 9.23097C138.586 9.79555 138.397 10.4636 138.303 11.2352C138.228 11.988 138.285 12.7879 138.473 13.6347C138.68 14.4628 139.113 15.1873 139.771 15.8084Z" fill="white"/>
<path d="M7.77 47.168C3.276 47.168 0.525 43.997 0.525 39.944C0.525 35.891 3.276 32.72 7.77 32.72C10.773 32.72 12.957 34.169 14.133 36.353L10.983 39.062C10.605 37.697 9.513 36.374 7.728 36.374C5.775 36.374 4.62 37.823 4.62 39.944C4.62 42.065 5.775 43.514 7.728 43.514C9.513 43.514 10.605 42.191 10.983 40.826L14.133 43.535C12.957 45.719 10.773 47.168 7.77 47.168ZM24.0532 47.168C19.7692 47.168 16.8082 43.997 16.8082 39.944C16.8082 35.891 19.7692 32.72 24.0532 32.72C28.3372 32.72 31.2982 35.891 31.2982 39.944C31.2982 43.997 28.3372 47.168 24.0532 47.168ZM24.0532 43.493C26.2372 43.493 27.3082 41.981 27.3082 39.944C27.3082 37.907 26.2372 36.395 24.0532 36.395C21.8692 36.395 20.7982 37.907 20.7982 39.944C20.7982 41.981 21.8692 43.493 24.0532 43.493ZM39.0321 47H35.2521V32.93H40.5021L41.8881 37.025L43.1271 41.897L44.3661 37.025L45.7521 32.93H51.0021V47H47.2221V43.346L47.8311 36.437L46.0671 41.897L45.1641 44.48H41.0901L40.1871 41.897L38.4231 36.437L39.0321 43.346V47ZM59.4989 47H55.7189V32.93H60.9689L62.3549 37.025L63.5939 41.897L64.8329 37.025L66.2189 32.93H71.4689V47H67.6889V43.346L68.2979 36.437L66.5339 41.897L65.6309 44.48H61.5569L60.6539 41.897L58.8899 36.437L59.4989 43.346V47ZM82.3807 47.21C78.2857 47.21 76.0807 45.215 76.0807 40.637V32.93H79.8607V40.679C79.8607 42.674 80.7427 43.535 82.4017 43.535C84.1027 43.535 84.9427 42.674 84.9427 40.679V32.93H88.7227V40.637C88.7227 45.215 86.5807 47.21 82.3807 47.21ZM97.1102 47H93.3302V32.93H97.1102L101.247 39.272L102.423 41.477L102.15 37.34V32.93H105.93V47H102.276L97.9922 40.679L96.7742 38.516L97.1102 43.073V47ZM114.419 47H110.639V32.93H114.419V47ZM125.594 47H121.814V36.29H117.761V32.93H129.647V36.29H125.594V47ZM141.455 47H137.675V42.464L132.257 32.93H137.045L138.41 36.038L139.649 39.272L140.888 36.038L142.274 32.93H146.936L141.455 42.506V47Z" fill="#3971FA"/>
</svg>
