<svg width="150" height="150" viewBox="0 0 150 150" fill="none" xmlns="http://www.w3.org/2000/svg">
<g clip-path="url(#clip0_525_1630)">
<path d="M56.25 2.60624C57.1651 3.71823 57.7258 5.0791 57.8595 6.51302C57.9932 7.94693 57.6938 9.38799 57 10.65C51.5799 20.6013 48.7494 31.7559 48.7688 43.0875C48.7688 80.7844 79.5 111.309 117.375 111.309C122.316 111.309 127.125 110.794 131.747 109.809C133.164 109.503 134.639 109.62 135.99 110.147C137.341 110.674 138.506 111.587 139.341 112.772C140.222 114.004 140.671 115.493 140.618 117.007C140.566 118.521 140.014 119.975 139.05 121.144C131.697 130.176 122.421 137.453 111.898 142.445C101.376 147.438 89.8717 150.018 78.225 150C35.0062 150 0 115.181 0 72.2812C0 39.9937 19.8188 12.3 48.0375 0.562491C49.4432 -0.0315856 51.0036 -0.153517 52.4845 0.215013C53.9654 0.583542 55.2867 1.42263 56.25 2.60624Z" fill="black"/>
</g>
<defs>
<clipPath id="clip0_525_1630">
<rect width="150" height="150" fill="white"/>
</clipPath>
</defs>
</svg>
