<svg width="141" height="141" viewBox="0 0 141 141" fill="none" xmlns="http://www.w3.org/2000/svg">
<path d="M65.625 18.75V4.6875C65.625 3.4443 66.1189 2.25201 66.9979 1.37294C67.877 0.49386 69.0693 0 70.3125 0C71.5557 0 72.748 0.49386 73.6271 1.37294C74.5061 2.25201 75 3.4443 75 4.6875V18.75C75 19.9932 74.5061 21.1855 73.6271 22.0646C72.748 22.9436 71.5557 23.4375 70.3125 23.4375C69.0693 23.4375 67.877 22.9436 66.9979 22.0646C66.1189 21.1855 65.625 19.9932 65.625 18.75ZM70.3125 32.8125C62.8957 32.8125 55.6455 35.0118 49.4786 39.1324C43.3118 43.2529 38.5053 49.1096 35.667 55.9619C32.8287 62.8141 32.0861 70.3541 33.5331 77.6284C34.98 84.9027 38.5515 91.5845 43.796 96.829C49.0405 102.073 55.7223 105.645 62.9966 107.092C70.2709 108.539 77.8109 107.796 84.6631 104.958C91.5154 102.12 97.3721 97.3132 101.493 91.1464C105.613 84.9795 107.812 77.7293 107.812 70.3125C107.802 60.3702 103.847 50.8382 96.817 43.808C89.7868 36.7777 80.2548 32.8234 70.3125 32.8125ZM29.4961 36.1289C30.3757 37.0085 31.5686 37.5026 32.8125 37.5026C34.0564 37.5026 35.2493 37.0085 36.1289 36.1289C37.0085 35.2493 37.5026 34.0564 37.5026 32.8125C37.5026 31.5686 37.0085 30.3757 36.1289 29.4961L26.7539 20.1211C25.8743 19.2415 24.6814 18.7474 23.4375 18.7474C22.1936 18.7474 21.0007 19.2415 20.1211 20.1211C19.2415 21.0007 18.7474 22.1936 18.7474 23.4375C18.7474 24.6814 19.2415 25.8743 20.1211 26.7539L29.4961 36.1289ZM29.4961 104.496L20.1211 113.871C19.2415 114.751 18.7474 115.944 18.7474 117.188C18.7474 118.431 19.2415 119.624 20.1211 120.504C21.0007 121.383 22.1936 121.878 23.4375 121.878C24.6814 121.878 25.8743 121.383 26.7539 120.504L36.1289 111.129C36.5644 110.693 36.9099 110.176 37.1456 109.607C37.3813 109.038 37.5026 108.428 37.5026 107.812C37.5026 107.197 37.3813 106.587 37.1456 106.018C36.9099 105.449 36.5644 104.932 36.1289 104.496C35.6934 104.061 35.1764 103.715 34.6073 103.479C34.0383 103.244 33.4284 103.122 32.8125 103.122C32.1966 103.122 31.5867 103.244 31.0177 103.479C30.4486 103.715 29.9316 104.061 29.4961 104.496ZM107.812 37.5C108.428 37.5005 109.038 37.3796 109.607 37.1444C110.176 36.9091 110.693 36.5641 111.129 36.1289L120.504 26.7539C121.383 25.8743 121.878 24.6814 121.878 23.4375C121.878 22.1936 121.383 21.0007 120.504 20.1211C119.624 19.2415 118.431 18.7474 117.188 18.7474C115.944 18.7474 114.751 19.2415 113.871 20.1211L104.496 29.4961C103.84 30.1517 103.393 30.9872 103.212 31.897C103.03 32.8068 103.123 33.7498 103.478 34.6068C103.833 35.4638 104.435 36.1962 105.206 36.7112C105.978 37.2262 106.885 37.5007 107.812 37.5ZM111.129 104.496C110.249 103.617 109.056 103.122 107.812 103.122C106.569 103.122 105.376 103.617 104.496 104.496C103.617 105.376 103.122 106.569 103.122 107.812C103.122 109.056 103.617 110.249 104.496 111.129L113.871 120.504C114.307 120.939 114.824 121.285 115.393 121.521C115.962 121.756 116.572 121.878 117.188 121.878C117.803 121.878 118.413 121.756 118.982 121.521C119.551 121.285 120.068 120.939 120.504 120.504C120.939 120.068 121.285 119.551 121.521 118.982C121.756 118.413 121.878 117.803 121.878 117.188C121.878 116.572 121.756 115.962 121.521 115.393C121.285 114.824 120.939 114.307 120.504 113.871L111.129 104.496ZM23.4375 70.3125C23.4375 69.0693 22.9436 67.877 22.0646 66.9979C21.1855 66.1189 19.9932 65.625 18.75 65.625H4.6875C3.4443 65.625 2.25201 66.1189 1.37294 66.9979C0.49386 67.877 0 69.0693 0 70.3125C0 71.5557 0.49386 72.748 1.37294 73.6271C2.25201 74.5061 3.4443 75 4.6875 75H18.75C19.9932 75 21.1855 74.5061 22.0646 73.6271C22.9436 72.748 23.4375 71.5557 23.4375 70.3125ZM70.3125 117.188C69.0693 117.188 67.877 117.681 66.9979 118.56C66.1189 119.44 65.625 120.632 65.625 121.875V135.938C65.625 137.181 66.1189 138.373 66.9979 139.252C67.877 140.131 69.0693 140.625 70.3125 140.625C71.5557 140.625 72.748 140.131 73.6271 139.252C74.5061 138.373 75 137.181 75 135.938V121.875C75 120.632 74.5061 119.44 73.6271 118.56C72.748 117.681 71.5557 117.188 70.3125 117.188ZM135.938 65.625H121.875C120.632 65.625 119.44 66.1189 118.56 66.9979C117.681 67.877 117.188 69.0693 117.188 70.3125C117.188 71.5557 117.681 72.748 118.56 73.6271C119.44 74.5061 120.632 75 121.875 75H135.938C137.181 75 138.373 74.5061 139.252 73.6271C140.131 72.748 140.625 71.5557 140.625 70.3125C140.625 69.0693 140.131 67.877 139.252 66.9979C138.373 66.1189 137.181 65.625 135.938 65.625Z" fill="white"/>
</svg>
